# xmcd
#
# Track frame offsets:
#	150
#	15549
#	28969
#	45557
#	61170
#	77468
#	85876
#	105004
#	123165
#	143761
#
# Disc length: 2096 seconds
#
# Revision: 1
# Processed by: cddbd v1.5.2PL0 Copyright (c) Steve Scherf et al.
# Submitted via: EasyCDDAExtractor 12.0.7.1
#
DISCID=6b082e0a
DTITLE=Terry Garoghan - Aunty Flo Slide Show
DYEAR=2013
DGENRE=Pop
TTITLE0=Roll Over
TTITLE1=Mummy and Me
TTITLE2=Montgomery Street
TTITLE3=Just Because
TTITLE4=The Aunty Flo Slide Show
TTITLE5=Schtuum!
TTITLE6=King Kong John
TTITLE7=The Man With Two Left Feet
TTITLE8=Thank You
TTITLE9=It Don't Matter
EXTD=
EXTT0=
EXTT1=
EXTT2=
EXTT3=
EXTT4=
EXTT5=
EXTT6=
EXTT7=
EXTT8=
EXTT9=
PLAYORDER=
